<svg width="147" height="423" fill="none" xmlns="http://www.w3.org/2000/svg"><path d="M7.185 419.409a3.591 3.591 0 00-3.592-3.59 3.591 3.591 0 100 7.181 3.592 3.592 0 003.592-3.591z" fill="#fff"/><path d="M7.185 367.432a3.592 3.592 0 00-7.185 0 3.591 3.591 0 003.593 3.59 3.591 3.591 0 003.592-3.59zm0-51.977a3.592 3.592 0 10-7.184.002 3.592 3.592 0 007.184-.002z" fill="#FF0B53"/><path d="M7.185 263.477a3.591 3.591 0 00-3.592-3.59 3.591 3.591 0 100 7.181 3.592 3.592 0 003.592-3.591z" fill="#fff"/><path d="M7.185 211.5a3.592 3.592 0 00-7.185 0 3.591 3.591 0 003.593 3.59 3.591 3.591 0 003.592-3.59zm0-51.977a3.592 3.592 0 10-7.184.002 3.592 3.592 0 007.184-.002zm-3.592-55.568a3.606 3.606 0 013.592 3.591c0 1.971-1.62 3.59-3.592 3.59A3.606 3.606 0 010 107.546a3.587 3.587 0 013.593-3.591zm3.592-48.387a3.592 3.592 0 00-3.592-3.59 3.592 3.592 0 103.592 3.59zm0-51.977A3.592 3.592 0 003.593.001a3.592 3.592 0 103.592 3.59zm34.954 415.818a3.591 3.591 0 00-3.593-3.59 3.591 3.591 0 100 7.181 3.592 3.592 0 003.593-3.591zm0-51.977a3.592 3.592 0 00-7.185 0 3.591 3.591 0 003.592 3.59 3.591 3.591 0 003.593-3.59zm0-51.977a3.592 3.592 0 10-7.184.002 3.592 3.592 0 007.184-.002zm0-51.978a3.591 3.591 0 00-3.593-3.59 3.591 3.591 0 100 7.181 3.592 3.592 0 003.593-3.591zm0-51.977a3.592 3.592 0 00-7.185 0 3.591 3.591 0 003.592 3.59 3.591 3.591 0 003.593-3.59z" fill="#FF0B53"/><path d="M42.139 159.523a3.592 3.592 0 10-7.184.002 3.592 3.592 0 007.184-.002z" fill="#fff"/><path d="M38.546 103.955a3.606 3.606 0 013.593 3.591c0 1.971-1.62 3.59-3.593 3.59a3.606 3.606 0 01-3.592-3.59 3.587 3.587 0 013.592-3.591zm3.593-48.387a3.592 3.592 0 00-3.593-3.59 3.592 3.592 0 103.593 3.59z" fill="#FF0B53"/><path d="M42.139 3.591a3.592 3.592 0 00-3.593-3.59 3.592 3.592 0 103.593 3.59z" fill="#fff"/><path d="M77.093 419.409a3.591 3.591 0 00-3.593-3.59 3.591 3.591 0 100 7.181 3.592 3.592 0 003.593-3.591z" fill="#FF0B53"/><path d="M77.093 367.432a3.592 3.592 0 00-7.186 0 3.591 3.591 0 003.593 3.59 3.591 3.591 0 003.593-3.59z" fill="#fff"/><path d="M77.093 315.455a3.592 3.592 0 10-7.184.002 3.592 3.592 0 007.183-.002zm0-51.978a3.591 3.591 0 00-3.593-3.59 3.591 3.591 0 100 7.181 3.592 3.592 0 003.593-3.591zm0-51.977a3.592 3.592 0 00-7.186 0 3.591 3.591 0 003.593 3.59 3.591 3.591 0 003.593-3.59zm0-51.977a3.592 3.592 0 10-7.184.002 3.592 3.592 0 007.183-.002z" fill="#FF0B53"/><path d="M73.5 103.955a3.606 3.606 0 013.593 3.591c0 1.971-1.62 3.59-3.593 3.59a3.606 3.606 0 01-3.593-3.59 3.587 3.587 0 013.593-3.591z" fill="#fff"/><path d="M77.093 55.568a3.592 3.592 0 00-3.593-3.59 3.592 3.592 0 103.593 3.59zm0-51.977A3.592 3.592 0 0073.5.001a3.592 3.592 0 103.593 3.59zm34.953 415.818a3.59 3.59 0 00-3.592-3.59 3.592 3.592 0 103.592 3.59zm0-51.977a3.592 3.592 0 00-7.185 0 3.592 3.592 0 003.593 3.59 3.59 3.59 0 003.592-3.59z" fill="#FF0B53"/><path d="M112.046 315.455a3.592 3.592 0 00-7.185 0 3.592 3.592 0 007.185 0z" fill="#fff"/><path d="M112.046 263.477a3.59 3.59 0 00-3.592-3.59 3.592 3.592 0 103.592 3.59z" fill="#FF0B53"/><path d="M112.046 211.5a3.592 3.592 0 00-7.185 0 3.592 3.592 0 003.593 3.59 3.59 3.59 0 003.592-3.59z" fill="#fff"/><path d="M112.046 159.523a3.592 3.592 0 00-7.185 0 3.592 3.592 0 007.185 0zm-3.592-55.568a3.606 3.606 0 013.592 3.591 3.606 3.606 0 01-3.592 3.59 3.606 3.606 0 01-3.593-3.59 3.587 3.587 0 013.593-3.591zm3.592-48.387a3.592 3.592 0 00-7.185 0 3.592 3.592 0 007.185 0zm0-51.977a3.592 3.592 0 00-7.185 0 3.592 3.592 0 007.185 0zM147 419.409a3.59 3.59 0 00-3.593-3.59 3.59 3.59 0 100 7.181 3.592 3.592 0 003.593-3.591zm0-51.977a3.592 3.592 0 00-7.185 0 3.59 3.59 0 003.592 3.59 3.59 3.59 0 003.593-3.59zm0-51.977a3.592 3.592 0 10-7.184.002 3.592 3.592 0 007.184-.002zm0-51.978a3.59 3.59 0 00-3.593-3.59 3.59 3.59 0 100 7.181 3.592 3.592 0 003.593-3.591zm0-51.977a3.592 3.592 0 00-7.185 0 3.59 3.59 0 003.592 3.59A3.59 3.59 0 00147 211.5zm0-51.977a3.592 3.592 0 10-7.184.002 3.592 3.592 0 007.184-.002zm-3.593-55.568a3.607 3.607 0 013.593 3.591c0 1.971-1.62 3.59-3.593 3.59a3.606 3.606 0 01-3.592-3.59 3.586 3.586 0 013.592-3.591z" fill="#FF0B53"/><path d="M147 55.568a3.591 3.591 0 00-3.593-3.59 3.591 3.591 0 100 7.18 3.591 3.591 0 003.593-3.59zm0-51.977a3.591 3.591 0 00-3.593-3.59 3.591 3.591 0 100 7.18A3.591 3.591 0 00147 3.592z" fill="#fff"/></svg>