<svg width="30" height="24" fill="none" xmlns="http://www.w3.org/2000/svg"><path d="M20.675 2.862a4.108 4.108 0 00-4.108 4.034l-.04 2.231a.848.848 0 01-.963.826l-2.212-.3c-2.91-.397-5.698-1.737-8.372-3.966-.847 4.69.807 7.938 4.792 10.444l2.475 1.555a.85.85 0 01.048 1.407l-2.255 1.648c1.342.083 2.615.024 3.672-.186 6.684-1.334 11.128-6.363 11.128-14.66 0-.677-1.434-3.032-4.165-3.032zm-6.942 3.981a6.942 6.942 0 0111.88-4.753c1.006-.007 1.863.248 3.78-.913-.474 2.323-.708 3.332-1.72 4.719 0 10.826-6.654 16.09-13.406 17.437-4.63.924-11.361-.593-13.29-2.608.982-.076 4.977-.506 7.287-2.196-1.954-1.287-9.73-5.863-4.62-18.166 2.398 2.801 4.83 4.708 7.296 5.72 1.64.672 2.043.658 2.795.762l-.002-.002z" fill="#FF0B53"/></svg>