<svg width="30" height="30" fill="none" xmlns="http://www.w3.org/2000/svg"><path d="M15 10.75a4.25 4.25 0 100 8.5 4.25 4.25 0 000-8.5zm0-2.833a7.083 7.083 0 110 14.167 7.083 7.083 0 010-14.167zm9.208-.354a1.771 1.771 0 11-3.542 0 1.771 1.771 0 013.542 0zM15 3.667c-3.505 0-4.077.01-5.708.082-1.11.052-1.856.201-2.547.47a4.09 4.09 0 00-1.53.996 4.094 4.094 0 00-.997 1.53c-.27.694-.418 1.438-.47 2.547-.073 1.564-.081 2.111-.081 5.708 0 3.505.01 4.077.082 5.708.052 1.109.201 1.856.469 2.546.24.616.524 1.06.994 1.53.478.476.921.76 1.53.995.7.271 1.445.421 2.55.472 1.564.074 2.111.082 5.708.082 3.505 0 4.077-.01 5.708-.082 1.108-.052 1.854-.201 2.546-.469a4.139 4.139 0 001.53-.994c.477-.478.762-.921.997-1.53.269-.699.42-1.445.47-2.55.074-1.564.082-2.111.082-5.708 0-3.505-.01-4.077-.082-5.708-.052-1.108-.201-1.856-.47-2.547a4.124 4.124 0 00-.996-1.53 4.086 4.086 0 00-1.53-.997c-.694-.27-1.44-.418-2.547-.47-1.564-.073-2.111-.081-5.708-.081zm0-2.834c3.85 0 4.33.015 5.84.085 1.508.071 2.535.308 3.44.66a6.895 6.895 0 012.51 1.633 6.955 6.955 0 011.633 2.51c.35.902.588 1.93.659 3.44.066 1.51.085 1.99.085 5.839 0 3.85-.015 4.33-.085 5.84-.071 1.508-.31 2.535-.66 3.44a6.917 6.917 0 01-1.633 2.51 6.963 6.963 0 01-2.51 1.633c-.902.35-1.93.588-3.44.659-1.51.066-1.99.085-5.839.085-3.85 0-4.33-.015-5.84-.085-1.508-.071-2.535-.31-3.44-.659a6.929 6.929 0 01-2.51-1.633 6.946 6.946 0 01-1.633-2.51c-.351-.903-.588-1.932-.659-3.44C.852 19.33.833 18.85.833 15c0-3.849.014-4.33.085-5.84.071-1.51.308-2.535.66-3.44A6.913 6.913 0 013.21 3.21a6.937 6.937 0 012.51-1.633C6.626 1.226 7.65.99 9.16.918 10.67.852 11.15.833 15 .833z" fill="#FF0B53"/></svg>