<svg width="26" height="26" fill="none" xmlns="http://www.w3.org/2000/svg"><path d="M1.667.25h22.666a1.417 1.417 0 011.417 1.417v22.666a1.417 1.417 0 01-1.417 1.417H1.667A1.417 1.417 0 01.25 24.333V1.667A1.417 1.417 0 011.667.25zm1.416 2.833v19.834h19.834V3.083H3.083zM6.625 8.75a2.125 2.125 0 110-4.25 2.125 2.125 0 010 4.25zm-1.417 1.417h2.834v10.625H5.208V10.167zm7.792.609c.827-.8 1.793-1.318 2.833-1.318 2.934 0 4.959 2.379 4.959 5.313v6.02h-2.834v-6.02a2.48 2.48 0 00-4.958 0v6.02h-2.833V10.168H13v.609z" fill="#FF0B53"/></svg>