<?xml version="1.0" standalone="no"?>
<!DOCTYPE svg PUBLIC "-//W3C//DTD SVG 20010904//EN"
 "http://www.w3.org/TR/2001/REC-SVG-20010904/DTD/svg10.dtd">
<svg version="1.0" xmlns="http://www.w3.org/2000/svg"
 width="1024.000000pt" height="1024.000000pt" viewBox="0 0 1024.000000 1024.000000"
 preserveAspectRatio="xMidYMid meet">
<metadata>
Created by potrace 1.14, written by Peter Selinger 2001-2017
</metadata>
<g transform="translate(0.000000,1024.000000) scale(0.100000,-0.100000)"
fill="#000000" stroke="none">
<path d="M4148 9515 c-1 -1 -39 -6 -83 -9 -128 -10 -237 -22 -285 -30 -14 -2
-47 -8 -75 -12 -27 -4 -52 -8 -55 -9 -3 0 -26 -4 -51 -8 -47 -8 -97 -17 -114
-21 -5 -2 -21 -6 -35 -9 -14 -4 -70 -18 -125 -31 -55 -14 -125 -32 -155 -41
-30 -10 -59 -18 -65 -19 -28 -5 -241 -79 -250 -87 -5 -5 -16 -9 -25 -9 -8 -1
-33 -9 -55 -20 -22 -10 -43 -16 -47 -14 -5 3 -8 0 -8 -5 0 -6 -5 -11 -12 -11
-20 0 -405 -183 -418 -199 -3 -3 -35 -22 -72 -41 -38 -19 -68 -38 -68 -42 0
-5 -6 -8 -13 -8 -7 0 -36 -16 -64 -35 -29 -19 -57 -35 -63 -35 -5 0 -10 -3
-10 -8 0 -4 -16 -16 -35 -26 -19 -11 -35 -22 -35 -26 0 -4 -12 -12 -27 -19
-27 -12 -62 -38 -211 -154 -205 -161 -434 -376 -582 -547 -30 -35 -64 -73 -75
-86 -12 -12 -32 -37 -45 -55 -14 -17 -40 -48 -57 -68 -18 -20 -33 -40 -33 -44
0 -4 -9 -18 -20 -30 -11 -11 -44 -55 -72 -97 -29 -41 -55 -77 -58 -80 -4 -3
-10 -12 -13 -20 -4 -8 -32 -53 -62 -100 -30 -47 -64 -103 -76 -125 -12 -22
-25 -42 -28 -45 -7 -5 -186 -365 -214 -430 -15 -34 -67 -166 -81 -205 -4 -11
-6 -20 -4 -21 2 0 -3 -8 -11 -17 -7 -10 -10 -17 -6 -17 4 0 2 -7 -5 -15 -7 -8
-10 -15 -7 -15 4 0 -2 -20 -13 -45 -11 -25 -20 -49 -21 -53 -1 -4 -3 -11 -5
-17 -4 -11 -38 -134 -59 -212 -8 -28 -16 -63 -19 -77 -3 -14 -7 -29 -9 -33 -5
-7 -14 -53 -22 -108 -2 -11 -4 -22 -5 -25 -1 -3 -3 -9 -5 -15 -1 -5 -3 -12 -4
-15 -3 -6 -11 -50 -12 -70 -1 -8 -7 -44 -14 -80 -6 -36 -11 -77 -11 -93 1 -15
-1 -27 -4 -27 -3 0 -6 -10 -7 -22 0 -13 -3 -48 -6 -78 -18 -160 -22 -248 -21
-490 0 -146 4 -299 7 -340 4 -41 10 -97 12 -125 2 -27 6 -63 9 -80 6 -37 14
-94 21 -137 2 -18 6 -42 9 -53 4 -20 16 -92 22 -130 2 -11 8 -38 14 -60 5 -22
13 -56 16 -75 3 -19 12 -53 19 -75 7 -22 19 -65 26 -95 16 -69 15 -62 22 -80
7 -18 41 -123 42 -130 2 -12 48 -146 54 -155 3 -5 6 -12 7 -15 0 -3 6 -18 13
-35 7 -16 24 -59 38 -95 22 -55 77 -180 102 -230 72 -142 116 -226 122 -230 3
-3 14 -21 24 -40 26 -52 128 -214 137 -218 4 -2 8 -8 8 -13 0 -19 225 -324
307 -416 15 -17 48 -55 73 -84 59 -70 301 -311 369 -369 29 -25 66 -56 81 -70
16 -14 43 -36 60 -50 18 -14 37 -30 44 -35 6 -6 47 -37 91 -70 44 -33 81 -63
83 -67 2 -5 10 -8 17 -8 7 0 15 -4 17 -8 4 -11 126 -92 138 -92 5 0 10 -4 12
-8 3 -7 33 -27 153 -99 11 -7 27 -15 35 -19 8 -4 27 -16 42 -26 14 -10 33 -18
41 -18 9 0 17 -4 19 -9 5 -13 225 -121 232 -114 3 4 6 1 6 -5 0 -6 10 -14 23
-18 12 -4 49 -19 82 -34 78 -35 172 -72 182 -72 4 0 17 -5 28 -11 11 -6 22
-12 25 -12 7 -1 112 -35 130 -42 8 -4 18 -7 23 -8 4 -2 9 -4 12 -5 3 -1 8 -3
13 -4 4 -2 32 -10 63 -20 31 -9 65 -19 75 -21 11 -2 68 -18 128 -34 60 -16
112 -29 115 -29 8 2 83 -13 101 -19 8 -3 29 -7 45 -9 17 -2 53 -8 80 -14 64
-12 119 -20 175 -26 25 -2 61 -6 80 -8 221 -27 775 -28 940 -2 31 5 101 14
160 21 25 3 52 7 60 10 8 2 35 7 60 10 25 3 52 8 60 10 8 2 30 7 48 10 18 3
65 13 105 21 39 9 80 17 89 18 10 1 21 5 24 9 4 4 18 7 31 7 13 0 23 3 23 8 0
4 15 8 32 9 18 2 44 7 58 12 14 5 34 12 45 17 23 8 32 11 60 18 27 6 138 44
172 58 16 6 37 13 48 15 10 2 29 10 42 18 12 8 27 15 33 15 31 0 379 165 542
257 130 74 353 216 362 232 3 4 -11 8 -32 9 -64 2 -208 16 -277 28 -16 2 -46
7 -65 9 -19 3 -46 7 -60 10 -14 3 -38 8 -55 11 -16 2 -37 7 -45 9 -8 2 -28 7
-45 9 -67 12 -316 81 -387 108 -15 5 -31 10 -35 11 -4 1 -37 13 -73 28 -35 15
-68 25 -72 23 -4 -3 -8 0 -8 5 0 6 -9 11 -20 11 -11 0 -20 4 -20 8 0 5 -6 9
-13 9 -22 0 -322 150 -430 214 -56 34 -137 86 -179 115 -43 30 -82 54 -87 54
-5 0 -11 4 -13 8 -1 4 -31 29 -65 55 -34 26 -68 53 -75 60 -7 7 -22 19 -34 27
-97 67 -427 397 -494 494 -8 12 -20 27 -27 35 -24 24 -128 164 -180 241 -110
165 -263 438 -263 469 0 6 -4 11 -10 11 -5 0 -10 6 -10 13 0 8 -6 27 -14 43
-27 55 -56 123 -56 129 0 4 -6 21 -14 38 -8 18 -24 59 -35 92 -12 33 -24 67
-28 75 -3 8 -8 24 -10 35 -1 11 -7 29 -12 40 -10 23 -51 167 -58 205 -2 14 -9
43 -14 65 -14 56 -27 121 -35 168 -2 15 -7 42 -10 60 -3 17 -7 46 -9 62 -2 17
-6 55 -10 85 -13 102 -16 145 -19 263 -3 65 -6 121 -9 124 -3 2 -2 17 2 31 5
15 5 36 1 47 -4 11 -5 24 -3 28 3 5 7 50 8 100 5 150 25 319 55 482 27 140 27
143 45 210 8 33 17 67 19 75 22 86 60 207 67 215 5 5 9 15 9 22 0 19 82 226
130 329 22 47 40 89 40 94 0 4 6 13 14 19 8 7 17 23 20 36 16 65 287 483 381
589 6 6 21 25 34 41 122 159 373 402 575 558 55 43 109 85 119 93 9 8 19 14
21 14 3 0 40 25 84 55 44 30 85 55 90 55 6 0 12 4 14 9 6 15 338 190 454 238
16 7 63 26 104 44 41 17 80 32 85 33 20 4 90 28 110 36 11 5 40 15 65 21 25 7
50 14 55 15 41 13 204 56 220 59 11 2 84 15 163 29 79 14 164 28 190 31 90 9
157 15 200 17 23 1 42 5 42 10 0 5 -4 6 -10 3 -5 -3 -10 -2 -10 3 0 19 -465
302 -497 302 -7 0 -13 5 -13 10 0 6 -4 10 -9 10 -5 0 -56 22 -113 49 -142 66
-160 74 -263 114 -114 44 -128 49 -140 53 -5 1 -23 8 -40 15 -16 6 -34 13 -40
14 -5 0 -17 4 -25 8 -8 3 -49 15 -90 27 -41 12 -82 24 -90 27 -17 7 -35 12
-65 18 -11 2 -45 10 -75 19 -30 8 -68 17 -85 20 -16 2 -30 5 -30 6 0 2 -14 5
-60 13 -16 3 -39 8 -50 10 -11 2 -41 7 -66 11 -25 4 -57 9 -70 11 -123 20
-141 22 -229 30 -36 3 -78 8 -95 10 -33 6 -611 16 -617 10z"/>
<path d="M6908 8235 c-2 -2 -37 -6 -80 -9 -42 -4 -91 -9 -110 -12 -18 -2 -51
-7 -73 -10 -22 -2 -65 -10 -95 -16 -30 -6 -62 -13 -70 -14 -21 -4 -84 -17 -90
-19 -3 -1 -18 -5 -35 -9 -16 -4 -75 -22 -130 -39 -55 -17 -104 -31 -110 -33
-14 -3 -146 -52 -170 -64 -11 -5 -45 -19 -75 -31 -100 -41 -363 -180 -388
-206 -7 -7 -19 -13 -26 -13 -7 0 -21 -8 -32 -17 -11 -10 -46 -36 -79 -58 -69
-45 -148 -107 -153 -117 -2 -5 -8 -8 -13 -8 -5 0 -17 -8 -27 -17 -10 -10 -43
-38 -72 -63 -133 -111 -350 -343 -445 -474 -11 -16 -25 -33 -31 -40 -39 -42
-244 -375 -244 -397 0 -5 -5 -9 -12 -9 -6 0 -9 -3 -6 -6 4 -3 -8 -33 -26 -67
-29 -54 -134 -304 -141 -332 -1 -5 -5 -17 -8 -25 -32 -84 -94 -314 -101 -375
-2 -16 -6 -37 -10 -45 -3 -8 -8 -31 -10 -50 -2 -19 -7 -45 -10 -57 -5 -21 -9
-65 -25 -228 -4 -44 -7 -108 -7 -143 1 -34 -3 -62 -7 -62 -5 0 -5 -4 -2 -10
10 -16 12 -80 3 -80 -5 0 -6 -5 -3 -10 4 -6 8 -61 11 -123 2 -62 6 -125 8
-142 3 -16 10 -70 17 -120 12 -93 16 -120 19 -120 1 0 3 -9 5 -20 6 -43 16
-93 31 -154 9 -36 17 -72 19 -80 18 -96 187 -536 216 -566 5 -5 9 -17 9 -26 0
-10 3 -19 8 -21 4 -1 19 -25 33 -53 41 -77 63 -118 71 -129 4 -6 43 -65 87
-131 44 -66 89 -130 100 -142 12 -12 21 -25 21 -28 0 -5 33 -46 63 -77 9 -10
15 -18 13 -18 -15 0 244 -264 344 -352 130 -113 384 -298 410 -298 5 0 10 -4
10 -10 0 -5 5 -10 10 -10 6 0 34 -15 63 -33 29 -18 71 -41 94 -52 24 -11 43
-23 43 -27 0 -5 5 -8 11 -8 6 0 43 -15 82 -34 93 -44 297 -126 314 -126 7 0
21 -4 31 -10 17 -10 129 -44 147 -45 6 0 15 -3 20 -7 6 -3 27 -9 48 -13 20 -4
40 -11 43 -16 3 -5 9 -7 14 -4 4 3 39 -1 77 -9 37 -8 82 -17 98 -20 17 -3 41
-7 55 -10 93 -18 286 -30 470 -30 180 0 375 8 375 15 0 1 9 3 20 4 97 11 143
18 225 36 52 11 106 22 120 25 41 8 101 24 170 47 36 11 71 20 77 20 7 0 13 4
13 9 0 4 3 7 8 6 32 -9 379 145 566 251 105 60 310 202 402 278 166 139 350
322 444 443 19 25 44 55 55 68 18 21 119 162 145 202 48 73 84 135 144 245 6
11 15 23 19 26 5 3 9 10 9 15 0 5 17 43 36 84 20 41 36 77 37 80 1 3 9 23 18
44 10 22 20 50 23 63 4 13 11 23 17 23 6 0 8 3 5 6 -3 3 5 33 19 67 14 34 26
69 27 77 1 8 5 22 8 30 9 21 49 161 54 183 2 10 5 26 8 35 3 9 8 33 11 52 3
19 12 64 20 100 13 62 25 134 30 190 1 14 3 25 4 25 14 0 20 525 8 660 -7 76
-13 120 -17 120 -1 0 -3 18 -4 40 -2 22 -4 40 -6 40 -1 0 -3 11 -4 25 -2 14
-6 43 -11 65 -5 22 -9 47 -11 55 -3 17 -16 80 -19 95 -11 49 -60 213 -74 250
-5 11 -16 43 -26 70 -51 145 -52 147 -136 320 -54 110 -103 203 -121 229 -44
64 -138 211 -138 217 0 4 -4 9 -9 11 -5 2 -34 36 -64 76 -207 274 -510 548
-818 740 -114 72 -329 185 -329 174 0 -4 -4 -2 -8 5 -14 22 -417 173 -462 173
-9 0 -20 3 -24 7 -3 4 -12 8 -19 9 -7 1 -41 9 -77 18 -36 8 -76 17 -90 20 -14
2 -36 7 -50 10 -32 7 -87 16 -125 21 -16 2 -46 6 -65 9 -19 4 -57 9 -85 12
-53 6 -522 14 -527 9z"/>
</g>
</svg>
