<svg width="375" height="677" viewBox="0 0 375 677" fill="none" xmlns="http://www.w3.org/2000/svg">
<path d="M195.404 571C108.472 571 38 641.537 38 728.55C38 815.563 108.472 886.1 195.404 886.1C282.336 886.1 352.808 815.563 352.808 728.55C352.808 641.537 282.333 571 195.404 571ZM195.404 836.428C135.878 836.428 87.6263 788.127 87.6263 728.55C87.6263 668.973 135.882 620.672 195.404 620.672C254.93 620.672 303.182 668.973 303.182 728.55C303.182 788.127 254.926 836.428 195.404 836.428Z" fill="#FF0B53"/>
<path d="M68.2814 49.9593C126.948 42.5015 152.164 85.7066 137.629 115.217C123.093 144.727 58.5329 150.964 67.5572 198.761C76.5856 246.561 -1.90247 268.172 -1.90247 268.172" stroke="white" stroke-miterlimit="10"/>
<path d="M-21 62.4333C-21 62.4333 23.7219 78.6446 68.219 72.8242C112.716 67.0038 117.919 93.1644 112.716 103.58C101.919 125.195 44.1972 129.349 40.4593 164.263C37.6496 190.507 59.9773 225.78 9.31549 244.482" stroke="white" stroke-miterlimit="10"/>
<path d="M-1.06567 79.8904C-1.06567 79.8904 44.6469 74.0533 36.4842 99.8431C27.1311 129.403 5.16143 128.937 25.924 166.346C33.3083 179.654 35.4769 233.267 -5.21985 222.459" stroke="white" stroke-miterlimit="10"/>
<path d="M76.3774 109.817C87.7293 109.817 96.9318 104.792 96.9318 98.5932C96.9318 92.3943 87.7293 87.369 76.3774 87.369C65.0255 87.369 55.823 92.3943 55.823 98.5932C55.823 104.792 65.0255 109.817 76.3774 109.817Z" stroke="white" stroke-miterlimit="10"/>
<path d="M337.775 305.019C337.775 305.019 255.299 285.62 230.383 367.089C212.505 425.547 210.981 457.424 173.893 473.494C136.81 489.563 115.214 493.005 113 510.404" stroke="white" stroke-miterlimit="10"/>
<path d="M210.427 510.404C210.427 510.404 188.658 456.312 246.108 428.051C284.89 408.974 266.709 344.203 291.842 323.584C311.776 307.235 337.775 342.537 337.775 342.537" stroke="white" stroke-miterlimit="10"/>
<path d="M227.464 525.019C227.464 525.019 228.126 483.176 272.419 455.745C316.713 428.314 299.376 380.93 324.85 373.726C350.321 366.523 375.791 397.558 375.791 397.558" stroke="white" stroke-miterlimit="10"/>
<path d="M258.621 510.07C258.621 510.07 255.299 475.71 289.074 471.277C322.848 466.844 351.64 504.404 351.64 504.404" stroke="white" stroke-miterlimit="10"/>
<path d="M181.242 39.5032C181.242 17.6862 163.503 1.73987e-05 141.621 2.20486e-05C119.739 2.66985e-05 102 17.6862 102 39.5032C102 61.3203 119.739 79.0065 141.621 79.0065C163.503 79.0065 181.242 61.3203 181.242 39.5032Z" fill="#FF0B53"/>
<path d="M96.133 309L83.0294 322.112L69.9301 309L60.1523 318.787L73.2517 331.898L60.1523 345.01L69.9301 354.801L83.0294 341.685L96.133 354.801L105.911 345.014L92.8072 331.898L105.911 318.787L96.133 309Z" stroke="#FF0B53" stroke-width="4" stroke-miterlimit="10"/>
<path d="M335.548 133.753L312.042 157.276L288.541 133.753L271 151.31L294.502 174.838L271 198.361L288.541 215.918L312.042 192.395L335.548 215.918L353.089 198.361L329.587 174.838L353.089 151.31L335.548 133.753Z" fill="#FF0B53"/>
</svg>
