<svg width="368" height="1040" viewBox="0 0 368 1040" fill="none" xmlns="http://www.w3.org/2000/svg">
<path d="M303.172 664.012C326.439 664.012 345.302 645.122 345.302 621.82C345.302 598.518 326.439 579.628 303.172 579.628C279.904 579.628 261.042 598.518 261.042 621.82C261.042 645.122 279.904 664.012 303.172 664.012Z" fill="#17191D"/>
<path d="M384.34 541.94C418.282 507.948 418.282 452.837 384.34 418.846C350.399 384.854 295.368 384.854 261.427 418.846C227.485 452.837 227.485 507.948 261.427 541.94C295.368 575.932 350.398 575.932 384.34 541.94Z" fill="#17191D"/>
<path d="M347.956 542.31C395.957 542.31 434.87 503.34 434.87 455.268C434.87 407.196 395.957 368.226 347.956 368.226C299.955 368.226 261.042 407.196 261.042 455.268C261.042 503.34 299.955 542.31 347.956 542.31Z" fill="#FF0B53"/>
<path d="M317.769 1040C365.771 1040 404.683 1001.03 404.683 952.958C404.683 904.886 365.771 865.917 317.769 865.917C269.768 865.917 230.856 904.886 230.856 952.958C230.856 1001.03 269.768 1040 317.769 1040Z" fill="#FF0B53"/>
<path d="M162.309 174.083C210.31 174.083 249.222 135.114 249.222 87.0417C249.222 38.9699 210.31 0 162.309 0C114.307 0 75.3948 38.9699 75.3948 87.0417C75.3948 135.114 114.307 174.083 162.309 174.083Z" fill="#FF0B53"/>
<path d="M516.36 253.322C564.287 205.324 564.287 127.504 516.36 79.5058C468.432 31.5079 390.727 31.5079 342.799 79.5058C294.872 127.504 294.872 205.324 342.799 253.322C390.727 301.319 468.432 301.319 516.36 253.322Z" stroke="#FF0B53" stroke-width="20" stroke-miterlimit="10"/>
<path d="M219.322 767.568C238.688 722.42 217.841 670.097 172.759 650.702C127.677 631.307 75.4313 652.184 56.0648 697.333C36.6983 742.481 57.545 794.804 102.627 814.199C147.709 833.594 199.955 812.717 219.322 767.568Z" stroke="#FF0B53" stroke-width="20" stroke-miterlimit="10"/>
<path d="M450.14 643.457V823.902L303.172 733.67L450.14 643.457Z" fill="#17191D"/>
<path d="M410.346 643.457V823.902L263.378 733.67L410.346 643.457Z" stroke="#17191D" stroke-miterlimit="10"/>
<path d="M115.03 117.007C115.03 127.143 102.078 127.143 102.078 137.279C102.078 147.415 115.03 147.415 115.03 157.551C115.03 167.686 102.078 167.686 102.078 177.822C102.078 187.958 115.03 187.958 115.03 198.094C115.03 208.23 102.078 208.23 102.078 218.366C102.078 228.502 115.03 228.502 115.03 238.638C115.03 248.774 102.078 248.774 102.078 258.928C102.078 269.064 115.03 269.064 115.03 279.218" stroke="#17191D" stroke-miterlimit="10"/>
<path d="M37.3878 251.858C-12.4567 301.775 -12.4567 382.721 37.3878 432.639C87.2322 482.557 168.059 482.557 217.904 432.639L37.3878 251.858Z" fill="#FF0B53"/>
<path d="M295.636 410.35C367.13 408.244 423.383 348.494 421.28 276.894C419.177 205.295 359.515 148.959 288.021 151.065C216.527 153.171 160.274 212.921 162.377 284.52C164.479 356.12 224.142 412.455 295.636 410.35Z" stroke="#17191D" stroke-width="2" stroke-linecap="round" stroke-linejoin="round"/>
<path d="M295.436 389.831C355.626 387.822 402.794 337.329 400.788 277.05C398.783 216.771 348.363 169.534 288.173 171.542C227.983 173.551 180.815 224.045 182.821 284.323C184.826 344.602 235.246 391.839 295.436 389.831Z" stroke="#17191D" stroke-width="2" stroke-linecap="round" stroke-linejoin="round"/>
<path d="M306.012 368.285C354.311 360.435 387.11 314.86 379.271 266.49C371.433 218.121 325.925 185.273 277.627 193.124C229.328 200.974 196.529 246.548 204.368 294.918C212.206 343.287 257.714 376.135 306.012 368.285Z" stroke="#17191D" stroke-width="2" stroke-linecap="round" stroke-linejoin="round"/>
<path d="M306.226 347.387C343.004 339.409 366.361 303.082 358.394 266.249C350.427 229.417 314.154 206.026 277.375 214.004C240.597 221.983 217.24 258.31 225.207 295.142C233.174 331.975 269.447 355.366 306.226 347.387Z" stroke="#17191D" stroke-width="2" stroke-linecap="round" stroke-linejoin="round"/>
<path d="M310.069 324.828C334.401 314.734 345.955 286.798 335.877 262.43C325.798 238.062 297.902 226.491 273.57 236.584C249.238 246.678 237.684 274.615 247.763 298.983C257.842 323.35 285.737 334.922 310.069 324.828Z" stroke="#17191D" stroke-width="2" stroke-linecap="round" stroke-linejoin="round"/>
<path d="M74.917 441.482C74.917 440.277 73.9439 439.302 72.7407 439.302C71.5375 439.302 70.5643 440.277 70.5643 441.482C70.5643 442.687 71.5375 443.661 72.7407 443.661C73.9439 443.661 74.917 442.687 74.917 441.482Z" fill="#EAEAEA"/>
<path d="M110.73 441.482C110.73 440.277 109.757 439.302 108.554 439.302C107.351 439.302 106.377 440.277 106.377 441.482C106.377 442.687 107.351 443.661 108.554 443.661C109.757 443.661 110.73 442.687 110.73 441.482Z" fill="#EAEAEA"/>
<path d="M146.561 441.482C146.561 440.277 145.588 439.302 144.384 439.302C143.181 439.302 142.208 440.277 142.208 441.482C142.208 442.687 143.181 443.661 144.384 443.661C145.588 443.661 146.561 442.687 146.561 441.482Z" fill="#EAEAEA"/>
<path d="M182.374 441.482C182.374 440.277 181.401 439.302 180.197 439.302C178.994 439.302 178.021 440.277 178.021 441.482C178.021 442.687 178.994 443.661 180.197 443.661C181.401 443.661 182.374 442.687 182.374 441.482Z" fill="#EAEAEA"/>
<path d="M218.204 441.482C218.204 440.277 217.231 439.302 216.028 439.302C214.825 439.302 213.852 440.277 213.852 441.482C213.852 442.687 214.825 443.661 216.028 443.661C217.231 443.661 218.204 442.687 218.204 441.482Z" fill="#17191D"/>
<path d="M74.917 474.583C74.917 473.378 73.9439 472.403 72.7407 472.403C71.5375 472.403 70.5643 473.378 70.5643 474.583C70.5643 475.788 71.5375 476.762 72.7407 476.762C73.9439 476.762 74.917 475.788 74.917 474.583Z" fill="#17191D"/>
<path d="M110.73 474.583C110.73 473.378 109.757 472.403 108.554 472.403C107.351 472.403 106.377 473.378 106.377 474.583C106.377 475.788 107.351 476.762 108.554 476.762C109.757 476.762 110.73 475.788 110.73 474.583Z" fill="#17191D"/>
<path d="M146.561 474.583C146.561 473.378 145.588 472.403 144.384 472.403C143.181 472.403 142.208 473.378 142.208 474.583C142.208 475.788 143.181 476.762 144.384 476.762C145.588 476.762 146.561 475.788 146.561 474.583Z" fill="#17191D"/>
<path d="M182.374 474.583C182.374 473.378 181.401 472.403 180.197 472.403C178.994 472.403 178.021 473.378 178.021 474.583C178.021 475.788 178.994 476.762 180.197 476.762C181.401 476.762 182.374 475.788 182.374 474.583Z" fill="#17191D"/>
<path d="M218.204 474.583C218.204 473.378 217.231 472.403 216.028 472.403C214.825 472.403 213.852 473.378 213.852 474.583C213.852 475.788 214.825 476.762 216.028 476.762C217.231 476.762 218.204 475.788 218.204 474.583Z" fill="#17191D"/>
<path d="M74.917 507.684C74.917 506.479 73.9439 505.505 72.7407 505.505C71.5375 505.505 70.5643 506.479 70.5643 507.684C70.5643 508.889 71.5375 509.864 72.7407 509.864C73.9439 509.864 74.917 508.889 74.917 507.684Z" fill="#17191D"/>
<path d="M110.73 507.684C110.73 506.479 109.757 505.505 108.554 505.505C107.351 505.505 106.377 506.479 106.377 507.684C106.377 508.889 107.351 509.864 108.554 509.864C109.757 509.864 110.73 508.889 110.73 507.684Z" fill="#17191D"/>
<path d="M146.561 507.684C146.561 506.479 145.588 505.505 144.384 505.505C143.181 505.505 142.208 506.479 142.208 507.684C142.208 508.889 143.181 509.864 144.384 509.864C145.588 509.864 146.561 508.889 146.561 507.684Z" fill="#17191D"/>
<path d="M182.374 507.684C182.374 506.479 181.401 505.505 180.197 505.505C178.994 505.505 178.021 506.479 178.021 507.684C178.021 508.889 178.994 509.864 180.197 509.864C181.401 509.864 182.374 508.889 182.374 507.684Z" fill="#17191D"/>
<path d="M218.204 507.684C218.204 506.479 217.231 505.505 216.028 505.505C214.825 505.505 213.852 506.479 213.852 507.684C213.852 508.889 214.825 509.864 216.028 509.864C217.231 509.864 218.204 508.889 218.204 507.684Z" fill="#17191D"/>
<path d="M74.917 540.768C74.917 539.563 73.9439 538.588 72.7407 538.588C71.5375 538.588 70.5643 539.563 70.5643 540.768C70.5643 541.973 71.5375 542.948 72.7407 542.948C73.9439 542.948 74.917 541.973 74.917 540.768Z" fill="#17191D"/>
<path d="M110.73 540.768C110.73 539.563 109.757 538.588 108.554 538.588C107.351 538.588 106.377 539.563 106.377 540.768C106.377 541.973 107.351 542.948 108.554 542.948C109.757 542.948 110.73 541.973 110.73 540.768Z" fill="#17191D"/>
<path d="M146.561 540.768C146.561 539.563 145.588 538.588 144.384 538.588C143.181 538.588 142.208 539.563 142.208 540.768C142.208 541.973 143.181 542.948 144.384 542.948C145.588 542.948 146.561 541.973 146.561 540.768Z" fill="#17191D"/>
<path d="M182.374 540.768C182.374 539.563 181.401 538.588 180.197 538.588C178.994 538.588 178.021 539.563 178.021 540.768C178.021 541.973 178.994 542.948 180.197 542.948C181.401 542.948 182.374 541.973 182.374 540.768Z" fill="#17191D"/>
<path d="M218.204 540.768C218.204 539.563 217.231 538.588 216.028 538.588C214.825 538.588 213.852 539.563 213.852 540.768C213.852 541.973 214.825 542.948 216.028 542.948C217.231 542.948 218.204 541.973 218.204 540.768Z" fill="#17191D"/>
<path d="M74.917 573.869C74.917 572.664 73.9439 571.69 72.7407 571.69C71.5375 571.69 70.5643 572.664 70.5643 573.869C70.5643 575.074 71.5375 576.049 72.7407 576.049C73.9439 576.049 74.917 575.074 74.917 573.869Z" fill="#17191D"/>
<path d="M110.73 573.869C110.73 572.664 109.757 571.69 108.554 571.69C107.351 571.69 106.377 572.664 106.377 573.869C106.377 575.074 107.351 576.049 108.554 576.049C109.757 576.049 110.73 575.074 110.73 573.869Z" fill="#17191D"/>
<path d="M146.561 573.869C146.561 572.664 145.588 571.69 144.384 571.69C143.181 571.69 142.208 572.664 142.208 573.869C142.208 575.074 143.181 576.049 144.384 576.049C145.588 576.049 146.561 575.074 146.561 573.869Z" fill="#17191D"/>
<path d="M182.374 573.869C182.374 572.664 181.401 571.69 180.197 571.69C178.994 571.69 178.021 572.664 178.021 573.869C178.021 575.074 178.994 576.049 180.197 576.049C181.401 576.049 182.374 575.074 182.374 573.869Z" fill="#17191D"/>
<path d="M218.204 573.869C218.204 572.664 217.231 571.69 216.028 571.69C214.825 571.69 213.852 572.664 213.852 573.869C213.852 575.074 214.825 576.049 216.028 576.049C217.231 576.049 218.204 575.074 218.204 573.869Z" fill="#17191D"/>
<path d="M317.77 795.018C317.77 793.813 316.796 792.838 315.593 792.838C314.39 792.838 313.417 793.813 313.417 795.018C313.417 796.223 314.39 797.197 315.593 797.197C316.796 797.197 317.77 796.223 317.77 795.018Z" fill="#17191D"/>
<path d="M353.6 795.018C353.6 793.813 352.627 792.838 351.424 792.838C350.221 792.838 349.248 793.813 349.248 795.018C349.248 796.223 350.221 797.197 351.424 797.197C352.627 797.197 353.6 796.223 353.6 795.018Z" fill="#17191D"/>
<path d="M317.77 828.101C317.77 826.896 316.796 825.922 315.593 825.922C314.39 825.922 313.417 826.896 313.417 828.101C313.417 829.306 314.39 830.281 315.593 830.281C316.796 830.281 317.77 829.306 317.77 828.101Z" fill="#17191D"/>
<path d="M353.6 828.101C353.6 826.896 352.627 825.922 351.424 825.922C350.221 825.922 349.248 826.896 349.248 828.101C349.248 829.306 350.221 830.281 351.424 830.281C352.627 830.281 353.6 829.306 353.6 828.101Z" fill="#17191D"/>
<path d="M317.77 861.203C317.77 859.998 316.796 859.023 315.593 859.023C314.39 859.023 313.417 859.998 313.417 861.203C313.417 862.408 314.39 863.382 315.593 863.382C316.796 863.382 317.77 862.408 317.77 861.203Z" fill="#17191D"/>
<path d="M353.6 861.203C353.6 859.998 352.627 859.023 351.424 859.023C350.221 859.023 349.248 859.998 349.248 861.203C349.248 862.408 350.221 863.382 351.424 863.382C352.627 863.382 353.6 862.408 353.6 861.203Z" fill="#17191D"/>
<path d="M317.77 894.287C317.77 893.082 316.796 892.107 315.593 892.107C314.39 892.107 313.417 893.082 313.417 894.287C313.417 895.492 314.39 896.466 315.593 896.466C316.796 896.484 317.77 895.492 317.77 894.287Z" fill="#EAEAEA"/>
<path d="M353.6 894.287C353.6 893.082 352.627 892.107 351.424 892.107C350.221 892.107 349.248 893.082 349.248 894.287C349.248 895.491 350.221 896.466 351.424 896.466C352.627 896.466 353.6 895.491 353.6 894.287Z" fill="#EAEAEA"/>
<path d="M317.77 927.388C317.77 926.183 316.796 925.208 315.593 925.208C314.39 925.208 313.417 926.183 313.417 927.388C313.417 928.593 314.39 929.567 315.593 929.567C316.796 929.567 317.77 928.593 317.77 927.388Z" fill="#EAEAEA"/>
<path d="M353.6 927.388C353.6 926.183 352.627 925.208 351.424 925.208C350.221 925.208 349.248 926.183 349.248 927.388C349.248 928.593 350.221 929.567 351.424 929.567C352.627 929.567 353.6 928.593 353.6 927.388Z" fill="#EAEAEA"/>
<path d="M87.3562 885.621C97.4773 885.621 97.4773 898.593 107.598 898.593C117.719 898.593 117.719 885.621 127.84 885.621C137.962 885.621 137.962 898.593 148.083 898.593C158.204 898.593 158.204 885.621 168.325 885.621C178.446 885.621 178.446 898.593 188.567 898.593C198.688 898.593 198.688 885.621 208.809 885.621C218.93 885.621 218.93 898.593 229.069 898.593C239.19 898.593 239.19 885.621 249.329 885.621" stroke="#17191D" stroke-miterlimit="10"/>
</svg>
