<svg width="26" height="26" viewBox="0 0 26 26" fill="none" xmlns="http://www.w3.org/2000/svg">
<path d="M1.66667 0.25H24.3333C24.7091 0.25 25.0694 0.399255 25.3351 0.664932C25.6007 0.930609 25.75 1.29094 25.75 1.66667V24.3333C25.75 24.7091 25.6007 25.0694 25.3351 25.3351C25.0694 25.6007 24.7091 25.75 24.3333 25.75H1.66667C1.29094 25.75 0.930609 25.6007 0.664932 25.3351C0.399255 25.0694 0.25 24.7091 0.25 24.3333V1.66667C0.25 1.29094 0.399255 0.930609 0.664932 0.664932C0.930609 0.399255 1.29094 0.25 1.66667 0.25ZM3.08333 3.08333V22.9167H22.9167V3.08333H3.08333ZM6.625 8.75C6.06141 8.75 5.52091 8.52612 5.1224 8.1276C4.72388 7.72909 4.5 7.18858 4.5 6.625C4.5 6.06141 4.72388 5.52091 5.1224 5.1224C5.52091 4.72388 6.06141 4.5 6.625 4.5C7.18858 4.5 7.72909 4.72388 8.1276 5.1224C8.52612 5.52091 8.75 6.06141 8.75 6.625C8.75 7.18858 8.52612 7.72909 8.1276 8.1276C7.72909 8.52612 7.18858 8.75 6.625 8.75ZM5.20833 10.1667H8.04167V20.7917H5.20833V10.1667ZM13 10.7758C13.8273 9.97542 14.7935 9.45833 15.8333 9.45833C18.7673 9.45833 20.7917 11.8369 20.7917 14.7708V20.7917H17.9583V14.7708C17.9583 14.1133 17.6971 13.4827 17.2322 13.0178C16.7673 12.5529 16.1367 12.2917 15.4792 12.2917C14.8217 12.2917 14.1911 12.5529 13.7261 13.0178C13.2612 13.4827 13 14.1133 13 14.7708V20.7917H10.1667V10.1667H13V10.7758Z" fill="#FF0B53"/>
</svg>
