<svg width="30" height="30" viewBox="0 0 30 30" fill="none" xmlns="http://www.w3.org/2000/svg">
<path d="M15 10.75C13.8728 10.75 12.7918 11.1978 11.9948 11.9948C11.1977 12.7919 10.75 13.8729 10.75 15C10.75 16.1272 11.1977 17.2082 11.9948 18.0052C12.7918 18.8023 13.8728 19.25 15 19.25C16.1272 19.25 17.2082 18.8023 18.0052 18.0052C18.8022 17.2082 19.25 16.1272 19.25 15C19.25 13.8729 18.8022 12.7919 18.0052 11.9948C17.2082 11.1978 16.1272 10.75 15 10.75ZM15 7.91671C16.8786 7.91671 18.6803 8.66299 20.0087 9.99137C21.337 11.3198 22.0833 13.1214 22.0833 15C22.0833 16.8787 21.337 18.6803 20.0087 20.0087C18.6803 21.3371 16.8786 22.0834 15 22.0834C13.1214 22.0834 11.3197 21.3371 9.99131 20.0087C8.66292 18.6803 7.91665 16.8787 7.91665 15C7.91665 13.1214 8.66292 11.3198 9.99131 9.99137C11.3197 8.66299 13.1214 7.91671 15 7.91671ZM24.2083 7.56254C24.2083 8.0322 24.0217 8.48261 23.6897 8.81471C23.3576 9.1468 22.9071 9.33337 22.4375 9.33337C21.9678 9.33337 21.5174 9.1468 21.1853 8.81471C20.8532 8.48261 20.6666 8.0322 20.6666 7.56254C20.6666 7.09289 20.8532 6.64247 21.1853 6.31037C21.5174 5.97828 21.9678 5.79171 22.4375 5.79171C22.9071 5.79171 23.3576 5.97828 23.6897 6.31037C24.0217 6.64247 24.2083 7.09289 24.2083 7.56254ZM15 3.66671C11.4951 3.66671 10.9228 3.67662 9.29223 3.74887C8.18156 3.80129 7.4364 3.95004 6.74506 4.21921C6.13023 4.45721 5.68681 4.74196 5.21506 5.21512C4.77166 5.64352 4.43073 6.16653 4.21773 6.74512C3.94856 7.43929 3.79981 8.18304 3.74881 9.29229C3.67515 10.8563 3.66665 11.4031 3.66665 15C3.66665 18.5049 3.67656 19.0772 3.74881 20.7078C3.80123 21.817 3.94998 22.5636 4.21773 23.2535C4.45856 23.8698 4.7419 24.3132 5.21223 24.7835C5.68965 25.2595 6.13306 25.5443 6.74223 25.7795C7.44206 26.05 8.18723 26.2002 9.29223 26.2512C10.8562 26.3249 11.4031 26.3334 15 26.3334C18.5048 26.3334 19.0771 26.3235 20.7077 26.2512C21.8156 26.1988 22.5621 26.05 23.2535 25.7823C23.8669 25.5429 24.3131 25.2581 24.7835 24.7878C25.2609 24.3104 25.5456 23.867 25.7808 23.2578C26.05 22.5594 26.2001 21.8128 26.2511 20.7078C26.3248 19.1438 26.3333 18.597 26.3333 15C26.3333 11.4952 26.3234 10.9229 26.2511 9.29229C26.1987 8.18446 26.05 7.43646 25.7808 6.74512C25.5673 6.16713 25.227 5.64432 24.7849 5.21512C24.3567 4.77149 23.8336 4.43053 23.2549 4.21779C22.5607 3.94862 21.8156 3.79987 20.7077 3.74887C19.1437 3.67521 18.5969 3.66671 15 3.66671ZM15 0.833374C18.8491 0.833374 19.3293 0.847541 20.8395 0.918374C22.3482 0.989207 23.3753 1.22579 24.2791 1.57712C25.2141 1.93696 26.0018 2.42429 26.7895 3.21054C27.5098 3.91873 28.0672 4.77538 28.4229 5.72087C28.7728 6.62329 29.0108 7.65179 29.0816 9.16054C29.1482 10.6707 29.1666 11.151 29.1666 15C29.1666 18.8491 29.1525 19.3294 29.0816 20.8395C29.0108 22.3483 28.7728 23.3754 28.4229 24.2792C28.0683 25.2252 27.5107 26.0821 26.7895 26.7895C26.0811 27.5097 25.2245 28.067 24.2791 28.423C23.3767 28.7729 22.3482 29.0109 20.8395 29.0817C19.3293 29.1483 18.8491 29.1667 15 29.1667C11.1509 29.1667 10.6706 29.1525 9.16048 29.0817C7.65173 29.0109 6.62465 28.7729 5.72081 28.423C4.77494 28.068 3.91814 27.5105 3.21048 26.7895C2.48997 26.0815 1.93255 25.2248 1.57706 24.2792C1.22573 23.3768 0.989146 22.3483 0.918313 20.8395C0.85173 19.3294 0.833313 18.8491 0.833313 15C0.833313 11.151 0.84748 10.6707 0.918313 9.16054C0.989146 7.65037 1.22573 6.62471 1.57706 5.72087C1.93156 4.77479 2.48912 3.91791 3.21048 3.21054C3.91835 2.48978 4.77509 1.93232 5.72081 1.57712C6.62465 1.22579 7.65031 0.989207 9.16048 0.918374C10.6706 0.851791 11.1509 0.833374 15 0.833374Z" fill="#FF0B53"/>
</svg>
