<svg width="30" height="24" viewBox="0 0 30 24" fill="none" xmlns="http://www.w3.org/2000/svg">
<path d="M20.675 2.8625C19.5983 2.86232 18.5645 3.28484 17.7962 4.03914C17.0279 4.79343 16.5864 5.81922 16.5667 6.89575L16.527 9.127C16.5247 9.2468 16.4971 9.36475 16.4459 9.47312C16.3948 9.5815 16.3214 9.67784 16.2304 9.75583C16.1395 9.83382 16.033 9.89169 15.9181 9.92566C15.8032 9.95963 15.6824 9.96891 15.5637 9.95292L13.3523 9.65258C10.4424 9.25592 7.65442 7.91575 4.97976 5.68733C4.13259 10.3765 5.78726 13.6249 9.77234 16.131L12.2473 17.6865C12.3649 17.7604 12.4625 17.862 12.5318 17.9824C12.601 18.1028 12.6397 18.2383 12.6445 18.3771C12.6492 18.5159 12.6199 18.6538 12.5591 18.7786C12.4982 18.9034 12.4077 19.0115 12.2954 19.0932L10.0401 20.7408C11.3817 20.8244 12.6553 20.7649 13.7121 20.5552C20.3959 19.2207 24.84 14.1916 24.84 5.89558C24.84 5.21842 23.4063 2.8625 20.675 2.8625ZM13.7333 6.84333C13.7581 5.47774 14.1851 4.14978 14.961 3.02573C15.7368 1.90168 16.8271 1.03149 18.0951 0.524102C19.3632 0.0167196 20.7528 -0.105305 22.0899 0.173308C23.427 0.451921 24.6522 1.11879 25.6121 2.09042C26.6193 2.08333 27.4764 2.33833 29.3932 1.17667C28.9186 3.5 28.6848 4.50867 27.6733 5.89558C27.6733 16.7217 21.0193 21.9861 14.2674 23.3333C9.63776 24.257 2.90576 22.7397 0.976257 20.7253C1.95942 20.6487 5.95442 20.2195 8.26359 18.5294C6.31001 17.2417 -1.46608 12.6658 3.64384 0.363499C6.04226 3.16425 8.47468 5.07108 10.9397 6.08258C12.5802 6.7555 12.9825 6.74133 13.7348 6.84475L13.7333 6.84333Z" fill="#FF0B53"/>
</svg>
