<svg width="26" height="26" viewBox="0 0 26 26" fill="none" xmlns="http://www.w3.org/2000/svg">
<path d="M15.8333 22.9167H22.9167V3.08333H3.08333V22.9167H13V15.8333H10.1667V13H13V10.6568C13 8.76275 13.1983 8.07567 13.5667 7.38292C13.9295 6.69751 14.4903 6.13723 15.176 5.775C15.7172 5.48458 16.3901 5.31033 17.5659 5.23525C18.032 5.2055 18.6355 5.24233 19.3764 5.34858V8.04025H18.6667C17.3676 8.04025 16.8307 8.10117 16.5105 8.27258C16.3195 8.37084 16.1639 8.52637 16.0657 8.71742C15.8957 9.03758 15.8333 9.35492 15.8333 10.6554V13H19.375L18.6667 15.8333H15.8333V22.9167ZM1.66667 0.25H24.3333C24.7091 0.25 25.0694 0.399255 25.3351 0.664932C25.6007 0.930609 25.75 1.29094 25.75 1.66667V24.3333C25.75 24.7091 25.6007 25.0694 25.3351 25.3351C25.0694 25.6007 24.7091 25.75 24.3333 25.75H1.66667C1.29094 25.75 0.930609 25.6007 0.664932 25.3351C0.399255 25.0694 0.25 24.7091 0.25 24.3333V1.66667C0.25 1.29094 0.399255 0.930609 0.664932 0.664932C0.930609 0.399255 1.29094 0.25 1.66667 0.25Z" fill="#FF0B53"/>
</svg>
