<svg width="375" height="677" fill="none" xmlns="http://www.w3.org/2000/svg"><path d="M195.404 571C108.472 571 38 641.537 38 728.55S108.472 886.1 195.404 886.1s157.404-70.537 157.404-157.55S282.333 571 195.404 571zm0 265.428c-59.526 0-107.778-48.301-107.778-107.878s48.256-107.878 107.778-107.878c59.526 0 107.778 48.301 107.778 107.878s-48.256 107.878-107.778 107.878z" fill="#FF0B53"/><path d="M68.281 49.96c58.667-7.459 83.883 35.747 69.348 65.257-14.536 29.51-79.096 35.747-70.072 83.544 9.029 47.8-69.46 69.411-69.46 69.411" stroke="#fff" stroke-miterlimit="10"/><path d="M-21 62.433s44.722 16.212 89.219 10.391c44.497-5.82 49.7 20.34 44.497 30.756-10.797 21.615-68.519 25.769-72.257 60.683-2.81 26.244 19.518 61.517-31.144 80.219" stroke="#fff" stroke-miterlimit="10"/><path d="M-1.066 79.89s45.713-5.837 37.55 19.953c-9.353 29.56-31.323 29.094-10.56 66.503 7.384 13.308 9.553 66.921-31.144 56.113m81.597-112.642c11.352 0 20.555-5.025 20.555-11.224S87.729 87.37 76.377 87.37s-20.554 5.025-20.554 11.224 9.202 11.224 20.554 11.224zm261.398 195.202s-82.476-19.399-107.392 62.07c-17.878 58.458-19.402 90.335-56.49 106.405-37.083 16.069-58.679 19.511-60.893 36.91" stroke="#fff" stroke-miterlimit="10"/><path d="M210.427 510.404s-21.769-54.092 35.681-82.353c38.782-19.077 20.601-83.848 45.734-104.467 19.934-16.349 45.933 18.953 45.933 18.953M227.464 525.019s.662-41.843 44.955-69.274c44.294-27.431 26.957-74.815 52.431-82.019 25.471-7.203 50.941 23.832 50.941 23.832" stroke="#fff" stroke-miterlimit="10"/><path d="M258.621 510.07s-3.322-34.36 30.453-38.793c33.774-4.433 62.566 33.127 62.566 33.127" stroke="#fff" stroke-miterlimit="10"/><path d="M181.242 39.503C181.242 17.686 163.503 0 141.621 0S102 17.686 102 39.503s17.739 39.504 39.621 39.504 39.621-17.687 39.621-39.504z" fill="#FF0B53"/><path d="M96.133 309l-13.104 13.112L69.93 309l-9.778 9.787 13.1 13.111-13.1 13.112 9.778 9.791 13.1-13.116 13.103 13.116 9.778-9.787-13.104-13.116 13.104-13.111L96.133 309z" stroke="#FF0B53" stroke-width="4" stroke-miterlimit="10"/><path d="M335.548 133.753l-23.506 23.523-23.501-23.523L271 151.31l23.502 23.528L271 198.361l17.541 17.557 23.501-23.523 23.506 23.523 17.541-17.557-23.502-23.523 23.502-23.528-17.541-17.557z" fill="#FF0B53"/></svg>