<svg width="368" height="1040" fill="none" xmlns="http://www.w3.org/2000/svg"><path d="M303.172 664.012c23.267 0 42.13-18.89 42.13-42.192s-18.863-42.192-42.13-42.192c-23.268 0-42.13 18.89-42.13 42.192s18.862 42.192 42.13 42.192zM384.34 541.94c33.942-33.992 33.942-89.103 0-123.094-33.941-33.992-88.972-33.992-122.913 0-33.942 33.991-33.942 89.102 0 123.094 33.941 33.992 88.971 33.992 122.913 0z" fill="#17191D"/><path d="M347.956 542.31c48.001 0 86.914-38.97 86.914-87.042s-38.913-87.042-86.914-87.042c-48.001 0-86.914 38.97-86.914 87.042s38.913 87.042 86.914 87.042zM317.769 1040c48.002 0 86.914-38.97 86.914-87.042s-38.912-87.041-86.914-87.041c-48.001 0-86.913 38.969-86.913 87.041 0 48.072 38.912 87.042 86.913 87.042zm-155.46-865.917c48.001 0 86.913-38.969 86.913-87.041C249.222 38.97 210.31 0 162.309 0c-48.002 0-86.914 38.97-86.914 87.042s38.912 87.041 86.914 87.041z" fill="#FF0B53"/><path d="M516.36 253.322c47.927-47.998 47.927-125.818 0-173.816-47.928-47.998-125.633-47.998-173.561 0-47.927 47.998-47.927 125.818 0 173.816 47.928 47.997 125.633 47.997 173.561 0zM219.322 767.568c19.366-45.148-1.481-97.471-46.563-116.866-45.082-19.395-97.328 1.482-116.694 46.631-19.367 45.148 1.48 97.471 46.562 116.866 45.082 19.395 97.328-1.482 116.695-46.631z" stroke="#FF0B53" stroke-width="20" stroke-miterlimit="10"/><path d="M450.14 643.457v180.445L303.172 733.67l146.968-90.213z" fill="#17191D"/><path d="M410.346 643.457v180.445L263.378 733.67l146.968-90.213zM115.03 117.007c0 10.136-12.952 10.136-12.952 20.272s12.952 10.136 12.952 20.272c0 10.135-12.952 10.135-12.952 20.271 0 10.136 12.952 10.136 12.952 20.272s-12.952 10.136-12.952 20.272 12.952 10.136 12.952 20.272-12.952 10.136-12.952 20.29c0 10.136 12.952 10.136 12.952 20.29" stroke="#17191D" stroke-miterlimit="10"/><path d="M37.388 251.858c-49.845 49.917-49.845 130.863 0 180.781 49.844 49.918 130.671 49.918 180.516 0L37.388 251.858z" fill="#FF0B53"/><path d="M295.636 410.35c71.494-2.106 127.747-61.856 125.644-133.456-2.103-71.599-61.765-127.935-133.259-125.829-71.494 2.106-127.747 61.856-125.644 133.455 2.102 71.6 61.765 127.935 133.259 125.83z" stroke="#17191D" stroke-width="2" stroke-linecap="round" stroke-linejoin="round"/><path d="M295.436 389.831c60.19-2.009 107.358-52.502 105.352-112.781-2.005-60.279-52.425-107.516-112.615-105.508-60.19 2.009-107.358 52.503-105.352 112.781 2.005 60.279 52.425 107.516 112.615 105.508z" stroke="#17191D" stroke-width="2" stroke-linecap="round" stroke-linejoin="round"/><path d="M306.012 368.285c48.299-7.85 81.098-53.425 73.259-101.795-7.838-48.369-53.346-81.217-101.644-73.366-48.299 7.85-81.098 53.424-73.259 101.794 7.838 48.369 53.346 81.217 101.644 73.367z" stroke="#17191D" stroke-width="2" stroke-linecap="round" stroke-linejoin="round"/><path d="M306.226 347.387c36.778-7.978 60.135-44.305 52.168-81.138-7.967-36.832-44.24-60.223-81.019-52.245-36.778 7.979-60.135 44.306-52.168 81.138 7.967 36.833 44.24 60.224 81.019 52.245z" stroke="#17191D" stroke-width="2" stroke-linecap="round" stroke-linejoin="round"/><path d="M310.069 324.828c24.332-10.094 35.886-38.03 25.808-62.398-10.079-24.368-37.975-35.939-62.307-25.846-24.332 10.094-35.886 38.031-25.807 62.399 10.079 24.367 37.974 35.939 62.306 25.845z" stroke="#17191D" stroke-width="2" stroke-linecap="round" stroke-linejoin="round"/><path d="M74.917 441.482a2.177 2.177 0 10-4.353 0 2.176 2.176 0 104.353 0zm35.813 0a2.177 2.177 0 10-4.353 0 2.177 2.177 0 104.353 0zm35.831 0a2.177 2.177 0 10-4.353 0 2.176 2.176 0 104.353 0zm35.813 0a2.177 2.177 0 10-4.353 0 2.176 2.176 0 104.353 0z" fill="#EAEAEA"/><path d="M218.204 441.482a2.177 2.177 0 10-4.352 0 2.176 2.176 0 104.352 0zM74.917 474.583a2.177 2.177 0 10-4.353 0 2.176 2.176 0 104.353 0zm35.813 0a2.177 2.177 0 10-4.353 0 2.177 2.177 0 104.353 0zm35.831 0a2.177 2.177 0 10-4.353 0 2.176 2.176 0 104.353 0zm35.813 0a2.177 2.177 0 10-4.353 0 2.176 2.176 0 104.353 0zm35.83 0a2.177 2.177 0 10-4.352 0 2.176 2.176 0 104.352 0zM74.917 507.684a2.176 2.176 0 10-4.353 0 2.177 2.177 0 104.353 0zm35.813 0a2.176 2.176 0 10-4.353 0 2.177 2.177 0 104.353 0zm35.831 0a2.176 2.176 0 10-4.353 0 2.177 2.177 0 104.353 0zm35.813 0a2.176 2.176 0 10-4.353 0 2.177 2.177 0 104.353 0zm35.83 0a2.176 2.176 0 10-4.352 0 2.177 2.177 0 104.352 0zM74.917 540.768a2.177 2.177 0 10-4.353 0 2.177 2.177 0 104.353 0zm35.813 0a2.177 2.177 0 10-4.353 0 2.177 2.177 0 104.353 0zm35.831 0a2.177 2.177 0 10-4.353 0 2.177 2.177 0 104.353 0zm35.813 0a2.177 2.177 0 10-4.353 0 2.177 2.177 0 104.353 0zm35.83 0a2.177 2.177 0 10-4.352 0 2.177 2.177 0 104.352 0zM74.917 573.869a2.176 2.176 0 10-4.353 0 2.177 2.177 0 104.353 0zm35.813 0a2.176 2.176 0 10-4.353 0 2.177 2.177 0 104.353 0zm35.831 0a2.176 2.176 0 10-4.353 0 2.177 2.177 0 104.353 0zm35.813 0a2.176 2.176 0 10-4.353 0 2.177 2.177 0 104.353 0zm35.83 0a2.176 2.176 0 10-4.352 0 2.177 2.177 0 104.352 0zm99.566 221.149a2.177 2.177 0 10-4.353 0 2.176 2.176 0 104.353 0zm35.83 0a2.177 2.177 0 10-4.352 0 2.176 2.176 0 104.352 0zm-35.83 33.083a2.177 2.177 0 10-4.353 0 2.177 2.177 0 104.353 0zm35.83 0a2.176 2.176 0 10-4.352 0 2.177 2.177 0 104.352 0zm-35.83 33.102a2.177 2.177 0 10-4.353 0 2.176 2.176 0 104.353 0zm35.83 0a2.177 2.177 0 10-4.352 0 2.176 2.176 0 104.352 0z" fill="#17191D"/><path d="M317.77 894.287a2.177 2.177 0 10-4.353 0c0 1.205.973 2.179 2.176 2.179 1.203.018 2.177-.974 2.177-2.179zm35.83 0a2.177 2.177 0 10-4.352 0 2.176 2.176 0 104.352 0zm-35.83 33.101a2.177 2.177 0 10-4.353 0 2.176 2.176 0 104.353 0zm35.83 0a2.177 2.177 0 10-4.352 0 2.176 2.176 0 104.352 0z" fill="#EAEAEA"/><path d="M87.356 885.621c10.121 0 10.121 12.972 20.242 12.972s10.121-12.972 20.242-12.972c10.122 0 10.122 12.972 20.243 12.972 10.121 0 10.121-12.972 20.242-12.972s10.121 12.972 20.242 12.972 10.121-12.972 20.242-12.972 10.121 12.972 20.26 12.972c10.121 0 10.121-12.972 20.26-12.972" stroke="#17191D" stroke-miterlimit="10"/></svg>