<svg width="423" height="147" fill="none" xmlns="http://www.w3.org/2000/svg"><path d="M419.409 139.815a3.59 3.59 0 00-3.59 3.592 3.59 3.59 0 107.181 0 3.592 3.592 0 00-3.591-3.592z" fill="#101020"/><path d="M367.432 139.815a3.592 3.592 0 000 7.185 3.59 3.59 0 003.59-3.593 3.59 3.59 0 00-3.59-3.592zm-51.977 0a3.592 3.592 0 10.002 7.186 3.592 3.592 0 00-.002-7.186z" fill="#FF0B53"/><path d="M263.477 139.815a3.59 3.59 0 00-3.59 3.592 3.59 3.59 0 107.181 0 3.592 3.592 0 00-3.591-3.592z" fill="#101020"/><path d="M211.5 139.815a3.592 3.592 0 000 7.185 3.59 3.59 0 003.59-3.593 3.59 3.59 0 00-3.59-3.592zm-51.977 0a3.592 3.592 0 10.002 7.186 3.592 3.592 0 00-.002-7.186zm-55.568 3.592a3.605 3.605 0 013.59-3.592 3.606 3.606 0 013.591 3.592 3.607 3.607 0 01-3.591 3.593 3.587 3.587 0 01-3.59-3.593zm-48.387-3.592a3.591 3.591 0 00-3.59 3.592 3.591 3.591 0 103.59-3.592zm-51.977 0a3.591 3.591 0 00-3.59 3.592 3.591 3.591 0 103.59-3.592zm415.818-34.954a3.592 3.592 0 00-3.59 3.593 3.59 3.59 0 107.181 0 3.592 3.592 0 00-3.591-3.593zm-51.977 0a3.592 3.592 0 000 7.185 3.59 3.59 0 003.59-3.592 3.592 3.592 0 00-3.59-3.593zm-51.977 0a3.592 3.592 0 000 7.185 3.592 3.592 0 000-7.185zm-51.978 0a3.592 3.592 0 00-3.59 3.593 3.59 3.59 0 107.181 0 3.592 3.592 0 00-3.591-3.593zm-51.977 0a3.592 3.592 0 000 7.185 3.59 3.59 0 003.59-3.592 3.592 3.592 0 00-3.59-3.593z" fill="#FF0B53"/><path d="M159.523 104.861a3.592 3.592 0 000 7.185 3.592 3.592 0 000-7.185z" fill="#101020"/><path d="M103.955 108.454a3.606 3.606 0 013.59-3.593 3.607 3.607 0 013.591 3.593 3.606 3.606 0 01-3.591 3.592 3.586 3.586 0 01-3.59-3.592zm-48.387-3.593a3.592 3.592 0 000 7.185 3.592 3.592 0 000-7.185z" fill="#FF0B53"/><path d="M3.591 104.861a3.592 3.592 0 000 7.185 3.592 3.592 0 000-7.185z" fill="#101020"/><path d="M419.409 69.907a3.591 3.591 0 00-3.59 3.593 3.591 3.591 0 107.181 0 3.592 3.592 0 00-3.591-3.593z" fill="#FF0B53"/><path d="M367.432 69.907a3.592 3.592 0 000 7.186 3.591 3.591 0 003.59-3.593 3.591 3.591 0 00-3.59-3.593z" fill="#101020"/><path d="M315.455 69.907a3.592 3.592 0 10.002 7.184 3.592 3.592 0 00-.002-7.184zm-51.978 0a3.591 3.591 0 00-3.59 3.593 3.591 3.591 0 107.181 0 3.592 3.592 0 00-3.591-3.593zm-51.977 0a3.592 3.592 0 000 7.186 3.591 3.591 0 003.59-3.593 3.591 3.591 0 00-3.59-3.593zm-51.977 0a3.592 3.592 0 10.002 7.184 3.592 3.592 0 00-.002-7.184z" fill="#FF0B53"/><path d="M103.955 73.5a3.605 3.605 0 013.59-3.593 3.606 3.606 0 013.591 3.593 3.606 3.606 0 01-3.591 3.593 3.587 3.587 0 01-3.59-3.593z" fill="#101020"/><path d="M55.568 69.907a3.592 3.592 0 00-3.59 3.593 3.592 3.592 0 103.59-3.593zm-51.977 0A3.592 3.592 0 00.001 73.5a3.592 3.592 0 103.59-3.593zm415.818-34.953a3.591 3.591 0 00-3.59 3.592 3.591 3.591 0 107.181 0 3.592 3.592 0 00-3.591-3.592zm-51.977 0a3.592 3.592 0 000 7.185 3.591 3.591 0 003.59-3.593 3.591 3.591 0 00-3.59-3.592z" fill="#FF0B53"/><path d="M315.455 34.954a3.592 3.592 0 10.002 7.184 3.592 3.592 0 00-.002-7.184z" fill="#101020"/><path d="M263.477 34.954a3.591 3.591 0 00-3.59 3.592 3.591 3.591 0 107.181 0 3.592 3.592 0 00-3.591-3.592z" fill="#FF0B53"/><path d="M211.5 34.954a3.592 3.592 0 000 7.185 3.591 3.591 0 003.59-3.593 3.591 3.591 0 00-3.59-3.592z" fill="#101020"/><path d="M159.523 34.954a3.592 3.592 0 10.002 7.184 3.592 3.592 0 00-.002-7.184zm-55.568 3.592a3.605 3.605 0 013.59-3.592 3.606 3.606 0 013.591 3.592 3.606 3.606 0 01-3.591 3.593 3.587 3.587 0 01-3.59-3.593zm-48.387-3.592a3.592 3.592 0 00-3.59 3.592 3.592 3.592 0 103.59-3.592zm-51.977 0a3.592 3.592 0 00-3.59 3.592 3.592 3.592 0 103.59-3.592zM419.409 0a3.591 3.591 0 00-3.59 3.593 3.591 3.591 0 107.181 0A3.592 3.592 0 00419.409 0zm-51.977 0a3.592 3.592 0 000 7.185 3.591 3.591 0 003.59-3.592A3.591 3.591 0 00367.432 0zm-51.977 0a3.592 3.592 0 10.002 7.184A3.592 3.592 0 00315.455 0zm-51.978 0a3.591 3.591 0 00-3.59 3.593 3.591 3.591 0 107.181 0A3.592 3.592 0 00263.477 0zM211.5 0a3.592 3.592 0 000 7.185 3.591 3.591 0 003.59-3.592A3.591 3.591 0 00211.5 0zm-51.977 0a3.592 3.592 0 10.002 7.184A3.592 3.592 0 00159.523 0zm-55.568 3.593A3.605 3.605 0 01107.545 0a3.606 3.606 0 013.591 3.593 3.606 3.606 0 01-3.591 3.592 3.587 3.587 0 01-3.59-3.592z" fill="#FF0B53"/><path d="M55.568 0a3.592 3.592 0 00-3.59 3.593A3.592 3.592 0 1055.567 0zM3.591 0a3.592 3.592 0 00-3.59 3.593A3.592 3.592 0 103.59 0z" fill="#101020"/></svg>