<svg width="26" height="26" fill="none" xmlns="http://www.w3.org/2000/svg"><path d="M15.833 22.917h7.084V3.083H3.083v19.834H13v-7.084h-2.833V13H13v-2.343c0-1.894.198-2.581.567-3.274a3.862 3.862 0 011.609-1.608c.541-.29 1.214-.465 2.39-.54.466-.03 1.07.007 1.81.114V8.04h-.71c-1.298 0-1.835.061-2.155.233a1.03 1.03 0 00-.445.444c-.17.32-.233.638-.233 1.938V13h3.542l-.708 2.833h-2.834v7.084zM1.667.25h22.666a1.417 1.417 0 011.417 1.417v22.666a1.417 1.417 0 01-1.417 1.417H1.667A1.417 1.417 0 01.25 24.333V1.667A1.417 1.417 0 011.667.25z" fill="#FF0B53"/></svg>